<svg xmlns="http://www.w3.org/2000/svg" width="18" height="18" viewBox="0 0 18 18"><title>18 cat</title><g fill="none" stroke="#000" stroke-linecap="round" stroke-linejoin="round" stroke-width="1.5" class="nc-icon-wrapper"><path d="M2.25 10V2.172a.75.75 0 0 1 1.174-.619L7 4M15.75 10V2.172a.75.75 0 0 0-1.174-.619L11 4" data-color="color-2"/><path fill="#000" d="M9 13.417c.434-.477.801-.967 1-1.491a3 3 0 0 0-1-.175q-.5 0-1 .175c.199.524.566 1.015 1 1.491"/><circle cx="6" cy="9.5" r="1" fill="#000" stroke="none" data-color="color-2" data-stroke="none"/><circle cx="12" cy="9.5" r="1" fill="#000" stroke="none" data-color="color-2" data-stroke="none"/><path d="M15.442 11.871c.2-.591.308-1.219.308-1.871 0-3.452-3.022-6.25-6.75-6.25S2.25 6.548 2.25 10c0 .652.108 1.28.308 1.871M11.655 15.748A7.2 7.2 0 0 1 9 16.25c-.943 0-1.84-.179-2.655-.502M4.25 11.75.75 12M5.25 13.5 1.5 15M13.75 11.75l3.5.25M12.75 13.5 16.5 15M9 13v3.25"/></g></svg>