<svg xmlns="http://www.w3.org/2000/svg" width="18" height="18" viewBox="0 0 18 18"><title>18 chart line dot</title><g fill="none" stroke="currentColor" stroke-linecap="round" stroke-linejoin="round" stroke-width="1.5" class="nc-icon-wrapper"><path stroke="var(--color-text-secondary700)" d="m12.75 7.75-2.146 2.146a.5.5 0 0 1-.707 0L8.104 8.103a.5.5 0 0 0-.707 0l-2.146 2.146"/><path d="M15.25 8.244v5.006a2 2 0 0 1-2 2h-8.5a2 2 0 0 1-2-2v-8.5a2 2 0 0 1 2-2h5"/><path stroke="var(--color-text-secondary700)" d="M15 5.25a2.25 2.25 0 1 0 0-4.5 2.25 2.25 0 0 0 0 4.5"/></g></svg>