<svg xmlns="http://www.w3.org/2000/svg" width="18" height="18" viewBox="0 0 18 18"><title>18 face edit</title><g fill="none" stroke="currentColor" stroke-linecap="round" stroke-linejoin="round" stroke-width="1.5" class="nc-icon-wrapper"><path stroke="var(--color-text-secondary700)" d="M11.25 10.758a2.66 2.66 0 0 1-4.5 0"/><path fill="#000" stroke="var(--color-text-secondary700)" d="M6 9a1 1 0 1 0 0-2 1 1 0 0 0 0 2m6 0a1 1 0 1 0 0-2 1 1 0 0 0 0 2" data-stroke="none"/><path d="M16.247 8.057 16.25 8a7.25 7.25 0 0 0-14.5 0c0 3.82 2.96 6.936 6.71 7.214"/><path stroke="var(--color-text-secondary700)" d="m13.796 16.454 3.161-3.161a1 1 0 0 0 0-1.414l-.586-.586a1 1 0 0 0-1.414 0l-3.161 3.161L11 17.25z"/></g></svg>