<svg xmlns="http://www.w3.org/2000/svg" width="18" height="18" viewBox="0 0 18 18"><title>18 face expression</title><g fill="none" stroke="currentColor" stroke-linecap="round" stroke-linejoin="round" stroke-width="1.5" class="nc-icon-wrapper"><path d="M2.75 6.75v-2a2 2 0 0 1 2-2h2m4.5 0h2a2 2 0 0 1 2 2v2m0 4.5v2a2 2 0 0 1-2 2h-2m-4.5 0h-2a2 2 0 0 1-2-2v-2"/><circle cx="6" cy="7" r="1" fill="#000" stroke="var(--color-text-secondary700)" data-stroke="none"/><circle cx="12" cy="7" r="1" fill="#000" stroke="var(--color-text-secondary700)" data-stroke="none"/><path fill="#000" stroke="var(--color-text-secondary700)" d="M11.897 9.757a.67.67 0 0 0-.583-.189 15.1 15.1 0 0 1-4.638-.001.66.66 0 0 0-.572.185.7.7 0 0 0-.193.598c.23 1.511 1.558 2.651 3.089 2.651s2.86-1.141 3.089-2.654a.69.69 0 0 0-.192-.589Z" data-stroke="none"/></g></svg>